<svg width="102" height="78" viewBox="0 0 102 78" fill="none" xmlns="http://www.w3.org/2000/svg">
<path d="M73.3364 77.1638C60.5031 77.1638 54.0864 70.5139 54.0864 57.2139C54.0864 51.6139 56.1864 44.1472 60.3864 34.8139C64.5864 25.4805 68.7864 17.5472 72.9864 11.0138L78.9364 0.863851L101.336 12.4138L76.8364 41.4638L78.2364 42.8639C81.5031 41.4639 84.4197 40.7639 86.9864 40.7639C89.5531 40.7639 92.0031 42.2805 94.3364 45.3139C96.6697 48.3472 97.8364 52.3139 97.8364 57.2139C97.8364 61.8805 95.5031 66.4305 90.8364 70.8639C86.4031 75.0639 80.5697 77.1638 73.3364 77.1638ZM19.4364 77.1638C6.60306 77.1638 0.18639 70.5139 0.18639 57.2139C0.18639 51.6139 2.16972 44.1472 6.13639 34.8139C10.3364 25.4805 14.5364 17.5472 18.7364 11.0138L25.0364 0.863851L47.4364 12.4138L22.9364 41.4638L24.3364 42.8639C27.6031 41.4639 30.5197 40.7639 33.0864 40.7639C35.6531 40.7639 38.1031 42.2805 40.4364 45.3139C42.7697 48.3472 43.9364 52.3139 43.9364 57.2139C43.9364 61.8805 41.6031 66.4305 36.9364 70.8639C32.5031 75.0639 26.6697 77.1638 19.4364 77.1638Z" fill="black"/>
</svg>
